<svg version="1.2" xmlns="http://www.w3.org/2000/svg" viewBox="0 0 16 16" width="16" height="16">
	<path id="Ar" fill="#6c707e"  class="s0" aria-label="Ar"  d="m4.3 7l-0.3 1h2.3l-0.3-1q-0.2-0.8-0.4-1.6-0.2-0.8-0.5-1.6-0.2 0.8-0.4 1.6-0.2 0.8-0.4 1.6zm5.1 5h-2l-0.7-2.5h-3.1l-0.7 2.5h-2l3.1-9.6h2.3zm2.9 0h-1.9v-7.3h1.5l0.2 1.3q0.4-0.7 1-1.1 0.5-0.4 1.1-0.4 0.3 0 0.5 0.1 0.2 0 0.3 0.1l-0.3 1.6q-0.2 0-0.4-0.1-0.1 0-0.4 0-0.4 0-0.9 0.3-0.4 0.3-0.7 1.1z"/>
	<path id="形状 1" fill="#6c707e" fill-rule="evenodd" class="s0" d="m15 13v1h-14v-1z"/>
</svg>