<svg version="1.2" xmlns="http://www.w3.org/2000/svg" viewBox="0 0 20 20" width="20" height="20">
	<path fill="#6c707e" id="Ar " class="s0" aria-label="Ar
"  d="m6 7.8l-0.3 1.3h2.8l-0.4-1.3q-0.2-0.9-0.5-1.9-0.2-1-0.5-1.9h-0.1q-0.2 0.9-0.4 1.9-0.3 1-0.6 1.9zm6.3 6.2h-2.5l-0.8-3h-3.8l-0.9 3h-2.4l3.8-11.8h2.8zm3.5 0h-2.3v-9h1.9l0.2 1.6h0.1q0.5-0.9 1.1-1.4 0.7-0.4 1.4-0.4 0.4 0 0.6 0 0.2 0.1 0.5 0.2l-0.5 2q-0.2-0.1-0.4-0.1-0.2 0-0.5 0-0.5 0-1.1 0.4-0.6 0.3-1 1.3z"/>
	<path fill="#6c707e" id="形状 1" fill-rule="evenodd" class="s0" d="m18 16v2h-16v-2z"/>
</svg>