<svg version="1.2" xmlns="http://www.w3.org/2000/svg" viewBox="0 0 200 200" width="200" height="200">
	<title>pluginIcon</title>
	<defs>
		<linearGradient id="g1" x2="1" gradientUnits="userSpaceOnUse" gradientTransform="matrix(-118,0,0,-87,149,97.5)">
			<stop offset="0" stop-color="#928dab"/>
			<stop offset="1" stop-color="#00d2ff"/>
		</linearGradient>
	</defs>
	<style>
		.s0 { fill: url(#g1) } 
		.s1 { fill: #3ec0e7 } 
	</style>
	<g id="Logo Text">
		<path id="Ar copy 2" class="s0" aria-label="Ar"  d="m57.5 92.6l-4.3 13.2h26.2l-4.1-13.2q-2.4-7.3-4.5-14.5-2.1-7.2-4.2-14.7h-0.5q-2 7.5-4.1 14.7-2.2 7.2-4.5 14.5zm44.5 48.4h-11.6l-8.3-26.4h-31.6l-8.4 26.4h-11.1l29.4-86.5h12.2zm21.9 0h-10.7v-64.1h8.8l1 11.7h0.3q3.5-6.1 8.1-9.7 4.7-3.6 10.1-3.6 4.1 0 6.9 1.4l-2 9.4q-2.8-1-6.3-1-4 0-8.5 3.3-4.5 3.2-7.7 11.4z"/>
		<path id="形状 1" fill-rule="evenodd" class="s1" d="m147 147.1v6.7h-116v-6.7z"/>
	</g>
	<use id="plug-solid (2)" href="#img1" transform="matrix(.001,.114,-0.114,.001,167.648,110.442)"/>
</svg>